<svg width="22" height="21" viewBox="0 0 22 21" fill="none" xmlns="http://www.w3.org/2000/svg">
<path d="M15.7168 17.8664L14.8063 15.4793H7.06255L6.152 17.9238C5.79927 18.8754 5.49575 19.5152 5.24146 19.8515C4.98716 20.1879 4.577 20.3519 4.01099 20.3519C3.527 20.3519 3.10044 20.1715 2.7231 19.8187C2.35396 19.466 2.16528 19.064 2.16528 18.6129C2.16528 18.3504 2.2063 18.0879 2.29653 17.809C2.38677 17.5301 2.52622 17.1445 2.7231 16.6523L7.59575 4.28201C7.73521 3.92927 7.89927 3.50271 8.09614 3.00232C8.29302 2.50193 8.4981 2.09177 8.71958 1.76365C8.94106 1.43552 9.22817 1.16482 9.58911 0.967944C9.95005 0.762866 10.393 0.664429 10.918 0.664429C11.4512 0.664429 11.9024 0.762866 12.2633 0.967944C12.6243 1.17302 12.9114 1.43552 13.1329 1.75544C13.3543 2.07537 13.543 2.4199 13.6907 2.78904C13.8383 3.15818 14.0352 3.65037 14.2649 4.2656L19.236 16.5539C19.6297 17.489 19.8184 18.1699 19.8184 18.5965C19.8184 19.0394 19.6379 19.4414 19.2688 19.8105C18.8997 20.1797 18.4567 20.3601 17.9399 20.3601C17.6364 20.3601 17.3739 20.3027 17.1606 20.1961C16.9473 20.0894 16.7586 19.9418 16.6192 19.7531C16.4715 19.5644 16.3157 19.2773 16.1434 18.9C15.9793 18.498 15.8317 18.1617 15.7168 17.8664ZM8.07974 12.5754H13.7645L10.8934 4.71677L8.07974 12.5754Z" fill="#0C6E7F"/>
</svg>
