<svg width="20" height="21" viewBox="0 0 20 21" fill="none" xmlns="http://www.w3.org/2000/svg">
<path fill-rule="evenodd" clip-rule="evenodd" d="M10 2.1665C7.69886 2.1665 5.83337 4.03199 5.83337 6.33317C5.83337 8.63435 7.69886 10.4998 10 10.4998C12.3012 10.4998 14.1667 8.63435 14.1667 6.33317C14.1667 4.03199 12.3012 2.1665 10 2.1665Z" fill="#00393F"/>
<path fill-rule="evenodd" clip-rule="evenodd" d="M10 11.333C6.69737 11.333 4.57308 12.5382 3.44866 14.3788C2.75079 15.5213 3.0179 16.7102 3.73138 17.5392C4.4158 18.3345 5.51857 18.833 6.66667 18.833H13.3333C14.4814 18.833 15.5842 18.3345 16.2687 17.5392C16.9821 16.7102 17.2493 15.5213 16.5513 14.3788C15.4269 12.5382 13.3027 11.333 10 11.333Z" fill="#00393F"/>
</svg>
