<svg width="16" height="16" viewBox="0 0 16 16" fill="none" xmlns="http://www.w3.org/2000/svg">
<path d="M6.647 3.71796L7.0485 4.83296C7.4945 6.07046 8.469 7.04496 9.7065 7.49096L10.8215 7.89246C10.922 7.92896 10.922 8.07146 10.8215 8.10746L9.7065 8.50896C8.469 8.95496 7.4945 9.92946 7.0485 11.167L6.647 12.282C6.6105 12.3825 6.468 12.3825 6.432 12.282L6.0305 11.167C5.5845 9.92946 4.61 8.95496 3.3725 8.50896L2.2575 8.10746C2.157 8.07096 2.157 7.92846 2.2575 7.89246L3.3725 7.49096C4.61 7.04496 5.5845 6.07046 6.0305 4.83296L6.432 3.71796C6.468 3.61696 6.6105 3.61696 6.647 3.71796Z" fill="white"/>
<path d="M11.666 1.0385L11.8695 1.603C12.0955 2.2295 12.589 2.723 13.2155 2.949L13.78 3.1525C13.831 3.171 13.831 3.243 13.78 3.2615L13.2155 3.465C12.589 3.691 12.0955 4.1845 11.8695 4.811L11.666 5.3755C11.6475 5.4265 11.5755 5.4265 11.557 5.3755L11.3535 4.811C11.1275 4.1845 10.634 3.691 10.0075 3.465L9.44304 3.2615C9.39204 3.243 9.39204 3.171 9.44304 3.1525L10.0075 2.949C10.634 2.723 11.1275 2.2295 11.3535 1.603L11.557 1.0385C11.5755 0.987003 11.648 0.987003 11.666 1.0385Z" fill="white"/>
<path d="M11.666 10.625L11.8695 11.1895C12.0955 11.816 12.589 12.3095 13.2155 12.5355L13.78 12.739C13.831 12.7575 13.831 12.8295 13.78 12.848L13.2155 13.0515C12.589 13.2775 12.0955 13.771 11.8695 14.3975L11.666 14.962C11.6475 15.013 11.5755 15.013 11.557 14.962L11.3535 14.3975C11.1275 13.771 10.634 13.2775 10.0075 13.0515L9.44304 12.848C9.39204 12.8295 9.39204 12.7575 9.44304 12.739L10.0075 12.5355C10.634 12.3095 11.1275 11.816 11.3535 11.1895L11.557 10.625C11.5755 10.574 11.648 10.574 11.666 10.625Z" fill="white"/>
</svg>
