<svg width="24" height="24" viewBox="0 0 24 24" fill="none" xmlns="http://www.w3.org/2000/svg">
<path d="M15.1999 7.59998H1.5999C0.937161 7.59998 0.399902 8.13723 0.399902 8.79998V9.59998C0.399902 10.2627 0.937161 10.8 1.5999 10.8H15.1999C15.8626 10.8 16.3999 10.2627 16.3999 9.59998V8.79998C16.3999 8.13723 15.8626 7.59998 15.1999 7.59998Z" fill="#0C6E7F"/>
<path d="M22.3999 2H1.5999C0.937161 2 0.399902 2.53726 0.399902 3.2V4C0.399902 4.66274 0.937161 5.2 1.5999 5.2H22.3999C23.0626 5.2 23.5999 4.66274 23.5999 4V3.2C23.5999 2.53726 23.0626 2 22.3999 2Z" fill="#0C6E7F"/>
<path d="M15.1999 18.8H1.5999C0.937161 18.8 0.399902 19.3373 0.399902 20V20.8C0.399902 21.4628 0.937161 22 1.5999 22H15.1999C15.8626 22 16.3999 21.4628 16.3999 20.8V20C16.3999 19.3373 15.8626 18.8 15.1999 18.8Z" fill="#0C6E7F"/>
<path d="M22.3999 13.2H1.5999C0.937161 13.2 0.399902 13.7372 0.399902 14.4V15.2C0.399902 15.8627 0.937161 16.4 1.5999 16.4H22.3999C23.0626 16.4 23.5999 15.8627 23.5999 15.2V14.4C23.5999 13.7372 23.0626 13.2 22.3999 13.2Z" fill="#0C6E7F"/>
</svg>
