<svg width="24" height="24" viewBox="0 0 24 24" fill="none" xmlns="http://www.w3.org/2000/svg">
<path d="M17.5551 10.8273C18.4703 9.68592 19.0188 8.23833 19.0188 6.66483C19.0188 2.98983 16.029 0 12.354 0H5.85938C4.69439 0 3.75 0.944391 3.75 2.10938V21.8906C3.75 23.0556 4.69439 24 5.85938 24H12.8055C16.9104 24 20.25 20.6604 20.25 16.5555C20.25 14.2544 19.2004 12.1939 17.5551 10.8273ZM7.96875 4.21875H12.354C13.7027 4.21875 14.8001 5.31605 14.8001 6.66483C14.8001 8.01361 13.7028 9.11091 12.354 9.11091H7.96875V4.21875ZM12.8055 19.7812H7.96875V13.3296H12.8055C14.5842 13.3296 16.0312 14.7767 16.0312 16.5554C16.0312 18.3341 14.5842 19.7812 12.8055 19.7812Z" fill="#0C6E7F"/>
</svg>
