<svg width="24" height="24" viewBox="0 0 24 24" fill="none" xmlns="http://www.w3.org/2000/svg">
<path d="M3.52687 7.5H20.4727C20.6794 7.5 20.8762 7.41487 21.018 7.26487C21.1597 7.11487 21.2332 6.91313 21.2216 6.70687L21.2122 6.51225C21.0904 4.54275 19.4441 3 17.4637 3H16.5V2.25C16.5 1.836 16.164 1.5 15.75 1.5C15.336 1.5 15 1.836 15 2.25V3H9V2.25C9 1.836 8.664 1.5 8.25 1.5C7.836 1.5 7.5 1.836 7.5 2.25V3H6.53625C4.55587 3 2.90925 4.54313 2.78737 6.51375L2.778 6.70725C2.766 6.91313 2.83987 7.11488 2.98125 7.26525C3.12262 7.41563 3.32062 7.5 3.52687 7.5Z" fill="#2B8B9B"/>
<path d="M21.339 9.73125C21.3292 9.32438 20.9962 9 20.5893 9H3.41058C3.00371 9 2.67108 9.32438 2.66058 9.73125C2.59346 12.4181 2.64108 15.0956 2.80233 17.6903C2.91933 19.5728 4.42721 21.0803 6.30896 21.1973C8.19746 21.3158 10.0987 21.375 12 21.375C13.9008 21.375 15.8028 21.3158 17.6902 21.1969C19.5727 21.0799 21.0802 19.572 21.1976 17.6899C21.3588 15.0956 21.4065 12.4178 21.339 9.73125ZM15.75 13.5C15.1286 13.5 14.625 12.9964 14.625 12.375C14.625 11.7536 15.1286 11.25 15.75 11.25C16.3713 11.25 16.875 11.7536 16.875 12.375C16.875 12.9964 16.3713 13.5 15.75 13.5ZM16.875 16.125C16.875 16.7464 16.3713 17.25 15.75 17.25C15.1286 17.25 14.625 16.7464 14.625 16.125C14.625 15.5036 15.1286 15 15.75 15C16.3713 15 16.875 15.5036 16.875 16.125ZM8.24996 15C8.87133 15 9.37496 15.5036 9.37496 16.125C9.37496 16.7464 8.87133 17.25 8.24996 17.25C7.62858 17.25 7.12496 16.7464 7.12496 16.125C7.12496 15.5036 7.62858 15 8.24996 15ZM7.12496 12.375C7.12496 11.7536 7.62858 11.25 8.24996 11.25C8.87133 11.25 9.37496 11.7536 9.37496 12.375C9.37496 12.9964 8.87133 13.5 8.24996 13.5C7.62858 13.5 7.12496 12.9964 7.12496 12.375ZM10.875 16.125C10.875 15.5036 11.3786 15 12 15C12.6213 15 13.125 15.5036 13.125 16.125C13.125 16.7464 12.6213 17.25 12 17.25C11.3786 17.25 10.875 16.7464 10.875 16.125ZM12 13.5C11.3786 13.5 10.875 12.9964 10.875 12.375C10.875 11.7536 11.3786 11.25 12 11.25C12.6213 11.25 13.125 11.7536 13.125 12.375C13.125 12.9964 12.6213 13.5 12 13.5Z" fill="#2B8B9B"/>
</svg>
