<svg width="250" height="250" viewBox="0 0 250 250" fill="none" xmlns="http://www.w3.org/2000/svg">
<path d="M125.5 48.0651C127.237 48.0651 130.045 50.3818 132.521 52.4251C135.546 54.9188 138.971 57.7468 143.097 58.8501C144.598 59.2513 146.201 59.4459 147.994 59.4459C150.659 59.4459 153.271 59.0153 155.794 58.6003C157.91 58.2522 159.908 57.9218 161.542 57.9218C162.545 57.9218 163.299 58.0496 163.719 58.2935C165.128 59.1077 166.439 62.6142 167.493 65.4304C168.888 69.1532 170.467 73.3736 173.547 76.4533C176.626 79.5331 180.847 81.1123 184.57 82.5066C187.386 83.5607 190.89 84.8725 191.707 86.2806C192.485 87.6257 191.883 91.2738 191.402 94.2061C190.751 98.159 190.011 102.639 191.152 106.903C192.255 111.029 195.081 114.456 197.577 117.479C199.62 119.957 201.937 122.763 201.937 124.5C201.937 126.237 199.62 129.045 197.577 131.521C195.083 134.546 192.255 137.971 191.152 142.097C190.011 146.361 190.751 150.843 191.402 154.794C191.885 157.726 192.485 161.374 191.707 162.719C190.892 164.128 187.386 165.439 184.57 166.493C180.847 167.888 176.626 169.467 173.547 172.547C170.467 175.626 168.888 179.847 167.493 183.57C166.439 186.386 165.128 189.89 163.719 190.706C163.426 190.876 162.811 191.078 161.542 191.078C159.908 191.078 157.91 190.75 155.794 190.4C153.269 189.983 150.659 189.554 147.994 189.554C146.201 189.554 144.598 189.749 143.097 190.15C138.971 191.253 135.544 194.079 132.521 196.575C130.043 198.618 127.237 200.935 125.5 200.935C123.763 200.935 120.955 198.618 118.479 196.575C115.454 194.081 112.029 191.253 107.903 190.15C106.402 189.749 104.799 189.554 103.006 189.554C100.339 189.554 97.7293 189.985 95.2041 190.4C93.088 190.748 91.0899 191.078 89.4557 191.078C88.4527 191.078 87.6995 190.95 87.2786 190.706C85.8705 189.892 84.5588 186.386 83.5046 183.57C82.1103 179.847 80.5311 175.626 77.4514 172.547C74.3716 169.467 70.1513 167.888 66.4284 166.493C63.6122 165.439 60.1077 164.128 59.2915 162.719C58.5128 161.374 59.1145 157.726 59.5964 154.794C60.2473 150.841 60.9868 146.361 59.8461 142.097C58.7428 137.971 55.9168 134.544 53.4212 131.521C51.3778 129.043 49.0611 126.237 49.0611 124.5C49.0611 122.763 51.3778 119.955 53.4212 117.479C55.9148 114.454 58.7428 111.029 59.8461 106.903C60.9868 102.639 60.2473 98.157 59.5964 94.2061C59.1126 91.2738 58.5128 87.6257 59.2915 86.2806C60.1057 84.8725 63.6122 83.5607 66.4284 82.5066C70.1513 81.1123 74.3716 79.5331 77.4514 76.4533C80.5311 73.3736 82.1103 69.1532 83.5046 65.4304C84.5588 62.6142 85.8705 59.1097 87.2786 58.2935C87.5716 58.1244 88.1872 57.9218 89.4557 57.9218C91.0899 57.9218 93.088 58.2502 95.2041 58.6003C97.7293 59.0172 100.339 59.4459 103.004 59.4459C104.797 59.4459 106.4 59.2513 107.901 58.8501C112.027 57.7468 115.454 54.9207 118.477 52.4251C120.955 50.3818 123.762 48.0651 125.498 48.0651M125.5 42C118.493 42 112.798 51.2608 106.335 52.9895C105.287 53.2688 104.168 53.3809 103.004 53.3809C98.6791 53.3809 93.7291 51.8567 89.4557 51.8567C87.5441 51.8567 85.7663 52.1616 84.2421 53.0446C78.3029 56.4803 77.9824 67.3459 73.1641 72.1661C68.3439 76.9863 57.4783 77.3069 54.0426 83.2441C50.6561 89.0987 55.7752 98.6526 53.9895 105.339C52.2608 111.798 43 117.495 43 124.5C43 131.505 52.2608 137.202 53.9895 143.665C55.7772 150.351 50.6561 159.905 54.0426 165.758C57.4783 171.697 68.3439 172.018 73.1641 176.836C77.9843 181.656 78.3049 192.522 84.2421 195.957C85.7682 196.84 87.5441 197.145 89.4557 197.145C93.7311 197.145 98.6791 195.621 103.004 195.621C104.168 195.621 105.287 195.731 106.335 196.012C112.798 197.739 118.493 207.002 125.5 207.002C132.507 207.002 138.202 197.741 144.665 196.012C145.713 195.733 146.832 195.621 147.996 195.621C152.321 195.621 157.271 197.145 161.544 197.145C163.456 197.145 165.234 196.84 166.758 195.957C172.697 192.522 173.018 181.656 177.836 176.836C182.656 172.016 193.522 171.695 196.957 165.758C200.344 159.903 195.225 150.349 197.01 143.663C198.737 137.2 208 131.505 208 124.498C208 117.491 198.739 111.796 197.01 105.333C195.223 98.6467 200.344 89.0928 196.957 83.2402C193.522 77.301 182.656 76.9804 177.836 72.1622C173.016 67.342 172.695 56.4763 166.758 53.0406C165.232 52.1576 163.456 51.8528 161.544 51.8528C157.269 51.8528 152.321 53.3769 147.996 53.3769C146.832 53.3769 145.713 53.2668 144.665 52.9856C138.204 51.2608 132.507 42 125.5 42Z" fill="#F8AE00"/>
<path d="M125.5 75.887C132.065 75.887 138.431 77.1712 144.421 79.7042C150.209 82.1527 155.409 85.6591 159.875 90.1254C164.341 94.5916 167.848 99.7913 170.296 105.579C172.829 111.569 174.113 117.935 174.113 124.5C174.113 131.065 172.829 137.431 170.296 143.421C167.848 149.209 164.341 154.408 159.875 158.875C155.409 163.341 150.209 166.847 144.421 169.296C138.431 171.829 132.065 173.113 125.5 173.113C118.936 173.113 112.57 171.829 106.579 169.296C100.791 166.847 95.5917 163.341 91.1255 158.875C86.6593 154.408 83.1528 149.209 80.7043 143.421C78.1713 137.431 76.8871 131.065 76.8871 124.5C76.8871 117.935 78.1713 111.569 80.7043 105.579C83.1528 99.7913 86.6593 94.5916 91.1255 90.1254C95.5917 85.6591 100.791 82.1527 106.579 79.7042C112.57 77.1712 118.936 75.887 125.5 75.887ZM125.5 69.8219C95.3026 69.8219 70.822 94.3025 70.822 124.5C70.822 154.698 95.3026 179.178 125.5 179.178C155.698 179.178 180.178 154.698 180.178 124.5C180.178 94.3025 155.698 69.8219 125.5 69.8219Z" fill="#F8AE00"/>
<path d="M151.2 117.02L123.994 143.935C122.559 145.355 120.233 145.355 118.796 143.935L98.8003 124.154C97.7332 123.099 97.7332 121.386 98.8003 120.331L102.24 116.927C103.308 115.87 105.037 115.87 106.106 116.927L121.394 132.051L143.893 109.792C144.962 108.736 146.691 108.736 147.758 109.792L151.198 113.195C152.267 114.252 152.267 115.963 151.198 117.019L151.2 117.02Z" fill="#3796A0"/>
</svg>
