<svg width="16" height="17" viewBox="0 0 16 17" fill="none" xmlns="http://www.w3.org/2000/svg">
<path d="M5.33333 1.83329C5.33333 1.65648 5.40357 1.48691 5.5286 1.36189C5.65362 1.23686 5.82319 1.16663 6 1.16663H10C10.1768 1.16663 10.3464 1.23686 10.4714 1.36189C10.5964 1.48691 10.6667 1.65648 10.6667 1.83329C10.6667 2.0101 10.5964 2.17967 10.4714 2.3047C10.3464 2.42972 10.1768 2.49996 10 2.49996H6C5.82319 2.49996 5.65362 2.42972 5.5286 2.3047C5.40357 2.17967 5.33333 2.0101 5.33333 1.83329ZM14 4.49996C14 4.67677 13.9298 4.84634 13.8047 4.97136C13.6797 5.09639 13.5101 5.16663 13.3333 5.16663V12.5C13.3333 12.9377 13.2471 13.3712 13.0796 13.7756C12.9121 14.18 12.6666 14.5475 12.357 14.857C12.0475 15.1665 11.68 15.412 11.2756 15.5796C10.8712 15.7471 10.4377 15.8333 10 15.8333H6C5.11595 15.8333 4.2681 15.4821 3.64298 14.857C3.01786 14.2319 2.66667 13.384 2.66667 12.5V5.16663C2.48986 5.16663 2.32029 5.09639 2.19526 4.97136C2.07024 4.84634 2 4.67677 2 4.49996C2 4.32315 2.07024 4.15358 2.19526 4.02855C2.32029 3.90353 2.48986 3.83329 2.66667 3.83329H13.3333C13.5101 3.83329 13.6797 3.90353 13.8047 4.02855C13.9298 4.15358 14 4.32315 14 4.49996ZM7.33333 7.83329C7.33333 7.65648 7.2631 7.48691 7.13807 7.36189C7.01305 7.23686 6.84348 7.16663 6.66667 7.16663C6.48986 7.16663 6.32029 7.23686 6.19526 7.36189C6.07024 7.48691 6 7.65648 6 7.83329V11.8333C6 12.0101 6.07024 12.1797 6.19526 12.3047C6.32029 12.4297 6.48986 12.5 6.66667 12.5C6.84348 12.5 7.01305 12.4297 7.13807 12.3047C7.2631 12.1797 7.33333 12.0101 7.33333 11.8333V7.83329ZM10 7.83329C10 7.65648 9.92976 7.48691 9.80474 7.36189C9.67971 7.23686 9.51014 7.16663 9.33333 7.16663C9.15652 7.16663 8.98695 7.23686 8.86193 7.36189C8.73691 7.48691 8.66667 7.65648 8.66667 7.83329V11.8333C8.66667 12.0101 8.73691 12.1797 8.86193 12.3047C8.98695 12.4297 9.15652 12.5 9.33333 12.5C9.51014 12.5 9.67971 12.4297 9.80474 12.3047C9.92976 12.1797 10 12.0101 10 11.8333V7.83329Z" fill="#C62828"/>
</svg>
