<svg width="16" height="16" viewBox="0 0 16 16" fill="none" xmlns="http://www.w3.org/2000/svg">
<g clip-path="url(#clip0_273_1215)">
<path d="M14.6665 7.33329C14.4897 7.33329 14.3201 7.40353 14.1951 7.52855C14.0701 7.65358 13.9998 7.82315 13.9998 7.99996V12C13.9998 12.5304 13.7891 13.0391 13.4141 13.4142C13.039 13.7892 12.5303 14 11.9998 14H3.99984C3.4694 14 2.9607 13.7892 2.58562 13.4142C2.21055 13.0391 1.99984 12.5304 1.99984 12V3.99996C1.99984 3.46953 2.21055 2.96082 2.58562 2.58575C2.9607 2.21067 3.4694 1.99996 3.99984 1.99996H7.99984C8.17665 1.99996 8.34622 1.92972 8.47124 1.8047C8.59627 1.67967 8.6665 1.5101 8.6665 1.33329C8.6665 1.15648 8.59627 0.986912 8.47124 0.861888C8.34622 0.736864 8.17665 0.666626 7.99984 0.666626H3.99984C3.5621 0.666626 3.12864 0.752845 2.72423 0.920361C2.31981 1.08788 1.95234 1.33341 1.64281 1.64294C1.01769 2.26806 0.666504 3.1159 0.666504 3.99996V12C0.666504 12.4377 0.752723 12.8712 0.920239 13.2756C1.08775 13.68 1.33329 14.0475 1.64281 14.357C2.26794 14.9821 3.11578 15.3333 3.99984 15.3333H11.9998C12.4376 15.3333 12.871 15.2471 13.2754 15.0796C13.6799 14.912 14.0473 14.6665 14.3569 14.357C14.6664 14.0475 14.9119 13.68 15.0794 13.2756C15.247 12.8712 15.3332 12.4377 15.3332 12V7.99996C15.3332 7.82315 15.2629 7.65358 15.1379 7.52855C15.0129 7.40353 14.8433 7.33329 14.6665 7.33329Z" fill="#528C92"/>
<path d="M5.25318 6.97328C5.06661 7.15962 4.91873 7.381 4.81805 7.6247C4.71736 7.8684 4.66586 8.1296 4.66651 8.39328V9.33328C4.66651 9.86372 4.87722 10.3724 5.2523 10.7475C5.62737 11.1226 6.13608 11.3333 6.66651 11.3333H7.60651C7.87019 11.3339 8.13139 11.2824 8.37509 11.1817C8.61879 11.0811 8.84018 10.9332 9.02651 10.7466L14.7465 5.02662C14.933 4.84081 15.0809 4.62002 15.1818 4.37692C15.2828 4.13382 15.3348 3.87318 15.3348 3.60995C15.3348 3.34672 15.2828 3.08608 15.1818 2.84298C15.0809 2.59988 14.933 2.37909 14.7465 2.19328L13.8065 1.25328C13.6207 1.06683 13.3999 0.918889 13.1568 0.817945C12.9137 0.717001 12.6531 0.665039 12.3898 0.665039C12.1266 0.665039 11.866 0.717001 11.6229 0.817945C11.3798 0.918889 11.159 1.06683 10.9732 1.25328L5.25318 6.97328ZM12.8598 2.19328L13.8065 3.13995C13.9307 3.26486 14.0004 3.43383 14.0004 3.60995C14.0004 3.78607 13.9307 3.95504 13.8065 4.07995L13.2332 4.66662L11.3332 2.76662L11.9065 2.19328C11.9686 2.12979 12.0427 2.07933 12.1246 2.04489C12.2065 2.01044 12.2944 1.9927 12.3832 1.9927C12.472 1.9927 12.5599 2.01044 12.6418 2.04489C12.7236 2.07933 12.7978 2.12979 12.8598 2.19328ZM5.99984 8.39328C5.99934 8.30554 6.01615 8.21857 6.04933 8.13735C6.08251 8.05612 6.13139 7.98224 6.19318 7.91995L10.3998 3.71328L12.2865 5.59995L8.07984 9.80662C8.01755 9.8684 7.94367 9.91729 7.86245 9.95046C7.78122 9.98364 7.69425 10.0005 7.60651 9.99995H6.66651C6.4897 9.99995 6.32013 9.92971 6.19511 9.80469C6.07008 9.67966 5.99984 9.51009 5.99984 9.33328V8.39328Z" fill="#528C92"/>
</g>
<defs>
<clipPath id="clip0_273_1215">
<rect width="16" height="16" fill="white"/>
</clipPath>
</defs>
</svg>
