<svg width="16" height="17" viewBox="0 0 16 17" fill="none" xmlns="http://www.w3.org/2000/svg">
<path fill-rule="evenodd" clip-rule="evenodd" d="M2.00008 3.16663C2.00008 2.79844 2.29856 2.49996 2.66675 2.49996H5.44779C5.62461 2.49996 5.79417 2.5702 5.9192 2.69522L7.52868 4.3047C7.65368 4.42972 7.82328 4.49996 8.00008 4.49996H13.3334C13.7016 4.49996 14.0001 4.79844 14.0001 5.16663V13.1666C14.0001 13.5348 13.7016 13.8333 13.3334 13.8333H2.66675C2.29856 13.8333 2.00008 13.5348 2.00008 13.1666V3.16663ZM2.66675 1.16663C1.56218 1.16663 0.666748 2.06206 0.666748 3.16663V13.1666C0.666748 14.2712 1.56218 15.1666 2.66675 15.1666H13.3334C14.438 15.1666 15.3334 14.2712 15.3334 13.1666V5.16663C15.3334 4.06206 14.438 3.16663 13.3334 3.16663H8.27621L6.86201 1.75241C6.48693 1.37734 5.97823 1.16663 5.44779 1.16663H2.66675ZM5.52867 8.69523L7.52868 6.69522C7.78901 6.43487 8.21115 6.43487 8.47148 6.69522L10.4715 8.69523C10.7318 8.95556 10.7318 9.37769 10.4715 9.63803C10.2111 9.89836 9.78901 9.89836 9.52868 9.63803L8.66675 8.77609V11.8333C8.66675 12.2015 8.36828 12.5 8.00008 12.5C7.63188 12.5 7.33341 12.2015 7.33341 11.8333V8.77609L6.47149 9.63803C6.21113 9.89836 5.78903 9.89836 5.52867 9.63803C5.26833 9.37769 5.26833 8.95556 5.52867 8.69523Z" fill="#3796A0"/>
</svg>
