<svg width="24" height="24" viewBox="0 0 24 24" fill="none" xmlns="http://www.w3.org/2000/svg">
<g clip-path="url(#clip0_273_289)">
<path d="M14.8321 9.64075C12.3574 9.64075 9.86338 9.69638 7.34995 9.80763C6.06838 9.87044 4.60729 10.7503 4.16245 11.7506C3.12963 14.1018 2.34682 16.4531 1.81401 18.8043C1.59745 19.8028 2.41166 20.7197 3.57698 20.8176C5.87979 20.9983 8.2187 21.0884 10.5937 21.0881C12.9687 21.0878 15.3749 20.9976 17.8124 20.8176C19.0504 20.7197 20.5434 19.8028 21.0665 18.8043C22.2383 16.5459 23.2005 14.1848 23.9409 11.7506C24.2376 10.7503 23.4281 9.87044 22.1934 9.80763C19.7615 9.69575 17.3078 9.64013 14.8321 9.64075Z" fill="white"/>
<path d="M2.96152 11.2228V11.2181C3.28356 10.4934 3.92199 9.81417 4.75918 9.30557C5.5509 8.82464 6.44668 8.53729 7.28387 8.49651H7.28949C9.78887 8.38495 12.3257 8.32823 14.8303 8.32823C16.7765 8.32823 18.7167 8.36292 20.6198 8.43042C20.3737 7.31432 19.29 6.38995 18.0993 6.31776C15.3978 6.16964 12.6946 6.09948 9.98996 6.10729C9.85499 6.10749 9.72161 6.07823 9.59912 6.02155C9.47662 5.96488 9.36797 5.88216 9.28074 5.77917C8.59262 4.97104 7.92137 4.17089 7.28434 3.38526C7.15826 3.22782 6.99637 3.1028 6.81218 3.02061C6.62798 2.93842 6.42681 2.90144 6.22543 2.91276C5.13793 2.9687 4.05105 3.04682 2.96481 3.14714C1.71512 3.27182 0.515586 4.42917 0.354805 5.6901C-0.11957 9.67243 -0.11957 13.697 0.354805 17.6793C0.388462 17.9274 0.45843 18.1692 0.562461 18.397C1.10481 16.0242 1.91152 13.611 2.96152 11.2228Z" fill="white"/>
</g>
<defs>
<clipPath id="clip0_273_289">
<rect width="24" height="24" fill="white"/>
</clipPath>
</defs>
</svg>
