<svg width="16" height="17" viewBox="0 0 16 17" fill="none" xmlns="http://www.w3.org/2000/svg">
<path d="M8.7039 1.604C5.0239 1.604 2.0319 4.5 1.8399 8.132H0.831902C0.495902 8.132 0.287902 8.5 0.463902 8.788L2.2719 11.764C2.4319 12.036 2.8319 12.036 3.0079 11.764L4.8159 8.788C4.9919 8.5 4.7839 8.132 4.4479 8.132H3.3119C3.5039 5.316 5.8239 3.076 8.7039 3.076C11.6959 3.076 14.1279 5.508 14.1279 8.5C14.1279 11.492 11.6959 13.924 8.7039 13.924C7.6319 13.924 6.6079 13.62 5.7279 13.028C5.3919 12.804 4.9279 12.9 4.7039 13.236C4.4799 13.572 4.5759 14.036 4.9119 14.26C6.0319 15.012 7.3439 15.396 8.7039 15.396C12.5119 15.396 15.5999 12.308 15.5999 8.5C15.5999 4.692 12.5119 1.604 8.7039 1.604Z" fill="#3796A0"/>
<path d="M8.41583 9.124L10.4318 10.1C10.5438 10.148 10.6398 10.18 10.7518 10.18C11.0238 10.18 11.2958 10.02 11.4238 9.764C11.5998 9.396 11.4558 8.948 11.0878 8.772L9.48783 7.988L9.43983 5.332C9.43983 4.932 9.10383 4.596 8.68783 4.612C8.28783 4.612 7.95183 4.948 7.96783 5.364L8.01583 8.484C8.01583 8.74 8.17583 8.996 8.41583 9.124Z" fill="#2B8B9B"/>
</svg>
