<svg width="20" height="20" viewBox="0 0 20 20" fill="none" xmlns="http://www.w3.org/2000/svg">
<g clip-path="url(#clip0_192_4175)">
<path d="M10 20C15.5228 20 20 15.5228 20 10C20 4.47715 15.5228 0 10 0C4.47715 0 0 4.47715 0 10C0 15.5228 4.47715 20 10 20Z" fill="#39CD00"/>
<path d="M16.25 9.77271C16.2411 9.89969 16.2248 10.026 16.2011 10.1511C16.1221 10.63 15.9602 11.0914 15.7227 11.5148C15.6091 11.717 15.0625 12.4852 14.8955 12.6875C13.9716 13.8 12.4239 15.0841 9.8375 16.3329C9.78294 16.3593 9.72233 16.3706 9.66193 16.3658C9.60153 16.3609 9.54351 16.3401 9.49385 16.3053C9.44419 16.2706 9.40468 16.2233 9.3794 16.1682C9.35412 16.1131 9.34397 16.0523 9.35 15.992L9.48068 14.8182C9.49057 14.7284 9.46441 14.6383 9.40795 14.5678C9.35148 14.4973 9.26933 14.452 9.17954 14.442C8.31913 14.356 7.48098 14.117 6.70455 13.7363C4.93182 12.8602 3.75 11.2954 3.75 9.51249C3.75 6.76703 6.54773 4.54544 10 4.54544C11.7341 4.54544 13.3023 5.11362 14.4318 6.01476C15.4898 6.86135 16.167 8.01021 16.2398 9.28521C16.2519 9.44741 16.2553 9.61015 16.25 9.77271Z" fill="white"/>
<path d="M8.2773 10.6125C8.30753 10.6421 8.33147 10.6774 8.34768 10.7165C8.36389 10.7556 8.37203 10.7975 8.37162 10.8398C8.37177 10.8818 8.36362 10.9234 8.34764 10.9623C8.33166 11.0012 8.30816 11.0365 8.2785 11.0663C8.24883 11.0961 8.21358 11.1197 8.17476 11.1358C8.13595 11.1519 8.09433 11.1602 8.0523 11.1602H6.77389C6.68899 11.1599 6.60766 11.1261 6.54763 11.066C6.48759 11.006 6.45374 10.9247 6.45344 10.8398V8.425C6.45316 8.38273 6.46136 8.34084 6.47756 8.3018C6.49376 8.26276 6.51763 8.22737 6.54776 8.19773C6.59248 8.15286 6.64955 8.12231 6.71169 8.10997C6.77383 8.09763 6.83823 8.10405 6.89671 8.12841C6.95519 8.15278 7.0051 8.19399 7.04009 8.24681C7.07508 8.29962 7.09357 8.36165 7.09321 8.425V10.5193H8.0523C8.09413 10.519 8.1356 10.5271 8.17425 10.5431C8.2129 10.5591 8.24794 10.5827 8.2773 10.6125Z" fill="#00C200"/>
<path d="M9.31823 8.35569V10.9091C9.31793 10.9753 9.2915 11.0387 9.24468 11.0855C9.19786 11.1324 9.13444 11.1588 9.06823 11.1591H8.92505C8.85875 11.1591 8.79516 11.1328 8.74827 11.0859C8.70139 11.039 8.67505 10.9754 8.67505 10.9091V8.35569C8.67505 8.28939 8.70139 8.2258 8.74827 8.17892C8.79516 8.13203 8.85875 8.10569 8.92505 8.10569H9.06482C9.0979 8.10539 9.13071 8.11163 9.16136 8.12405C9.19202 8.13646 9.21992 8.15481 9.24347 8.17804C9.26702 8.20127 9.28574 8.22892 9.29857 8.25941C9.3114 8.2899 9.31808 8.32262 9.31823 8.35569Z" fill="#00C200"/>
<path d="M12.2864 8.42501V10.8261C12.2865 10.9125 12.253 10.9955 12.193 11.0577C12.1329 11.1198 12.0512 11.1562 11.9648 11.1591C11.8839 11.1578 11.8065 11.1262 11.7478 11.0705C11.7364 11.0614 11.3069 10.5023 10.9421 10.0318C10.6694 9.68069 10.433 9.37388 10.433 9.37388V10.8386C10.4332 10.9007 10.4153 10.9615 10.3815 11.0136C10.3477 11.0657 10.2995 11.1068 10.2427 11.1319C10.1859 11.1569 10.123 11.1649 10.0618 11.1548C10.0005 11.1447 9.94352 11.117 9.89778 11.075C9.86479 11.0451 9.83844 11.0086 9.82043 10.9679C9.80242 10.9272 9.79316 10.8832 9.79324 10.8386V8.43865C9.79218 8.35428 9.82354 8.27271 9.88083 8.21077C9.93812 8.14882 10.017 8.11122 10.1012 8.10569C10.1488 8.10492 10.1961 8.1147 10.2395 8.13435C10.2829 8.154 10.3215 8.18302 10.3523 8.21933C10.366 8.23524 11.0262 9.09433 11.3978 9.58297C11.5455 9.77388 11.6478 9.90797 11.6478 9.90797V8.43069C11.6484 8.34619 11.6822 8.26532 11.742 8.20556C11.8017 8.1458 11.8826 8.11197 11.9671 8.11138C12.0508 8.11136 12.1312 8.14422 12.1909 8.20288C12.2506 8.26155 12.2849 8.34131 12.2864 8.42501Z" fill="#00C200"/>
<path d="M13.4091 9.95113V10.5193H14.3671C14.4107 10.5167 14.4544 10.5231 14.4954 10.538C14.5365 10.5529 14.5741 10.576 14.6059 10.606C14.6377 10.6359 14.663 10.6721 14.6803 10.7122C14.6977 10.7523 14.7066 10.7955 14.7066 10.8392C14.7066 10.8829 14.6977 10.9261 14.6803 10.9662C14.663 11.0063 14.6377 11.0425 14.6059 11.0724C14.5741 11.1024 14.5365 11.1255 14.4954 11.1404C14.4544 11.1553 14.4107 11.1617 14.3671 11.1591H13.0852C13.0005 11.1588 12.9192 11.1249 12.8594 11.0648C12.7995 11.0048 12.7659 10.9234 12.7659 10.8386V8.42499C12.7662 8.34039 12.8 8.25935 12.8598 8.19953C12.9196 8.13971 13.0007 8.10597 13.0852 8.10567H14.3637C14.4073 8.10307 14.451 8.10942 14.492 8.12432C14.5331 8.13922 14.5707 8.16236 14.6025 8.19231C14.6343 8.22227 14.6596 8.25842 14.6769 8.29853C14.6943 8.33864 14.7032 8.38187 14.7032 8.42556C14.7032 8.46925 14.6943 8.51247 14.6769 8.55258C14.6596 8.59269 14.6343 8.62884 14.6025 8.6588C14.5707 8.68876 14.5331 8.7119 14.492 8.7268C14.451 8.7417 14.4073 8.74804 14.3637 8.74544H13.4091V9.31363H14.3671C14.4518 9.31363 14.533 9.34727 14.5929 9.40715C14.6527 9.46703 14.6864 9.54825 14.6864 9.63294C14.6864 9.71763 14.6527 9.79885 14.5929 9.85874C14.533 9.91862 14.4518 9.95226 14.3671 9.95226L13.4091 9.95113Z" fill="#00C200"/>
</g>
<defs>
<clipPath id="clip0_192_4175">
<rect width="20" height="20" fill="white"/>
</clipPath>
</defs>
</svg>
