<svg width="24" height="24" viewBox="0 0 24 24" fill="none" xmlns="http://www.w3.org/2000/svg">
<path d="M22.8029 20.7148H6.75419C6.09274 20.7148 5.55664 20.1787 5.55664 19.5172C5.55664 18.8558 6.09274 18.3197 6.75419 18.3197H22.8025C23.4639 18.3197 24 18.8558 24 19.5172C24 20.1787 23.4643 20.7148 22.8029 20.7148Z" fill="#0C6E7F"/>
<path d="M22.8029 13.1977H6.75419C6.09274 13.1977 5.55664 12.6616 5.55664 12.0002C5.55664 11.3387 6.09274 10.8026 6.75419 10.8026H22.8025C23.4639 10.8026 24 11.3387 24 12.0002C24.0004 12.6616 23.4643 13.1977 22.8029 13.1977Z" fill="#0C6E7F"/>
<path d="M22.8029 5.68073H6.75419C6.09274 5.68073 5.55664 5.14463 5.55664 4.48319C5.55664 3.82175 6.09274 3.28564 6.75419 3.28564H22.8025C23.4639 3.28564 24 3.82175 24 4.48319C24 5.14463 23.4643 5.68073 22.8029 5.68073Z" fill="#0C6E7F"/>
<path d="M1.6083 6.18413C2.49654 6.18413 3.21661 5.46407 3.21661 4.57583C3.21661 3.68759 2.49654 2.96753 1.6083 2.96753C0.720062 2.96753 0 3.68759 0 4.57583C0 5.46407 0.720062 6.18413 1.6083 6.18413Z" fill="#0C6E7F"/>
<path d="M1.6083 13.6086C2.49654 13.6086 3.21661 12.8885 3.21661 12.0003C3.21661 11.112 2.49654 10.392 1.6083 10.392C0.720062 10.392 0 11.112 0 12.0003C0 12.8885 0.720062 13.6086 1.6083 13.6086Z" fill="#0C6E7F"/>
<path d="M1.6083 21.0329C2.49654 21.0329 3.21661 20.3128 3.21661 19.4246C3.21661 18.5363 2.49654 17.8163 1.6083 17.8163C0.720062 17.8163 0 18.5363 0 19.4246C0 20.3128 0.720062 21.0329 1.6083 21.0329Z" fill="#0C6E7F"/>
</svg>
