<svg width="20" height="21" viewBox="0 0 20 21" fill="none" xmlns="http://www.w3.org/2000/svg">
<g clip-path="url(#clip0_273_172)">
<mask id="mask0_273_172" style="mask-type:luminance" maskUnits="userSpaceOnUse" x="0" y="0" width="20" height="21">
<path d="M0 0.5H20V20.5H0V0.5Z" fill="white"/>
</mask>
<g mask="url(#mask0_273_172)">
<path fill-rule="evenodd" clip-rule="evenodd" d="M6.66666 6.5835C6.66666 5.18336 6.66666 4.4833 6.93914 3.94852C7.17883 3.47811 7.56128 3.09566 8.03169 2.85598C8.56649 2.5835 9.26649 2.5835 10.6667 2.5835H12.6667C14.0668 2.5835 14.7668 2.5835 15.3017 2.85598C15.7721 3.09566 16.1545 3.47811 16.3942 3.94852C16.6667 4.4833 16.6667 5.18336 16.6667 6.5835V14.4168C16.6667 15.817 16.6667 16.517 16.3942 17.0518C16.1545 17.5222 15.7721 17.9047 15.3017 18.1443C14.7668 18.4168 14.0668 18.4168 12.6667 18.4168H10.6667C9.26649 18.4168 8.56649 18.4168 8.03169 18.1443C7.56128 17.9047 7.17883 17.5222 6.93914 17.0518C6.66666 16.517 6.66666 15.817 6.66666 14.4168V13.2085H9.99999C11.4957 13.2085 12.7083 11.9959 12.7083 10.5002C12.7083 9.00441 11.4957 7.79183 9.99999 7.79183H6.66666V6.5835ZM4.48656 8.73673C4.89336 8.32994 4.89336 7.67039 4.48656 7.2636C4.07977 6.8568 3.42022 6.8568 3.01343 7.2636L0.513426 9.76358C0.106629 10.1704 0.106629 10.8299 0.513426 11.2367L3.01343 13.7367C3.42022 14.1435 4.07977 14.1435 4.48656 13.7367C4.89336 13.3299 4.89336 12.6704 4.48656 12.2636L3.7648 11.5418H9.99999C10.5753 11.5418 11.0417 11.0755 11.0417 10.5002C11.0417 9.92483 10.5753 9.4585 9.99999 9.4585H3.7648L4.48656 8.73673Z" fill="#00393F"/>
</g>
</g>
<defs>
<clipPath id="clip0_273_172">
<rect width="20" height="20" fill="white" transform="translate(0 0.5)"/>
</clipPath>
</defs>
</svg>
