<svg width="250" height="250" viewBox="0 0 250 250" fill="none" xmlns="http://www.w3.org/2000/svg">
<path d="M181.509 80.1536V51.4265H141.15L124.96 39.9023L108.77 51.4265H68.4104V80.1536L41.7979 99.0962V210.018H208.122V99.0962L181.509 80.1536Z" fill="#FDC333"/>
<path d="M181.509 113.09L142.174 133.775L124.96 121.602L108.083 136.126L68.4104 113.963V51.4265H181.509V113.09Z" fill="#EFEFE7"/>
<path d="M41.7979 99.0962V210.018L109.293 144.109L41.7979 99.0962Z" fill="#F7A633"/>
<path d="M140.627 144.109L208.122 210.018V99.0962L140.627 144.109Z" fill="#F7A633"/>
<path d="M124.96 128.81L109.293 144.109L41.7979 210.018H208.122L140.627 144.109L124.96 128.81Z" fill="#F39232"/>
<path d="M41.7979 99.0962L109.293 144.109L124.96 128.81L140.627 144.109L208.122 99.0962L142.174 133.775L124.96 121.602L108.083 136.126L41.7979 99.0962Z" fill="#E67D2F"/>
<path d="M121.755 71.51H82.9346V74.2745H121.755V71.51Z" fill="#D8D8DA"/>
<path d="M166.985 71.51H145.825V74.2745H166.985V71.51Z" fill="#D8D8DA"/>
<path d="M140.242 71.51H125.548V74.2745H140.242V71.51Z" fill="#D8D8DA"/>
<path d="M121.755 92.8167H82.9346V95.5812H121.755V92.8167Z" fill="#D8D8DA"/>
<path d="M140.242 92.8167H125.548V95.5812H140.242V92.8167Z" fill="#D8D8DA"/>
<path d="M111.735 85.8483H82.9346V88.6127H111.735V85.8483Z" fill="#D8D8DA"/>
<path d="M166.985 85.8483H145.825V88.6127H166.985V85.8483Z" fill="#D8D8DA"/>
<path d="M140.242 85.8483H115.528V88.6127H140.242V85.8483Z" fill="#D8D8DA"/>
<path d="M102.344 79.2106H82.9346V81.9751H102.344V79.2106Z" fill="#D8D8DA"/>
<path d="M166.985 79.2106H132.894V81.9751H166.985V79.2106Z" fill="#D8D8DA"/>
<path d="M127.311 79.2106H106.137V81.9751H127.311V79.2106Z" fill="#D8D8DA"/>
<path d="M121.755 103.169H82.9346V105.933H121.755V103.169Z" fill="#D8D8DA"/>
<path d="M166.985 103.169H145.825V105.933H166.985V103.169Z" fill="#D8D8DA"/>
<path d="M140.242 103.169H125.548V105.933H140.242V103.169Z" fill="#D8D8DA"/>
<path d="M111.735 117.507H82.9346V120.271H111.735V117.507Z" fill="#D8D8DA"/>
<path d="M166.985 117.507H145.825V120.271H166.985V117.507Z" fill="#D8D8DA"/>
<path d="M140.242 117.507H115.528V120.271H140.242V117.507Z" fill="#D8D8DA"/>
<path d="M102.344 110.869H82.9346V113.634H102.344V110.869Z" fill="#D8D8DA"/>
<path d="M166.985 110.869H132.894V113.634H166.985V110.869Z" fill="#D8D8DA"/>
<path d="M127.311 110.869H106.137V113.634H127.311V110.869Z" fill="#D8D8DA"/>
</svg>
