<svg width="24" height="24" viewBox="0 0 24 24" fill="none" xmlns="http://www.w3.org/2000/svg">
<path d="M20.5 8C21.3284 8 22 7.32843 22 6.5C22 5.67157 21.3284 5 20.5 5C19.6716 5 19 5.67157 19 6.5C19 7.32843 19.6716 8 20.5 8Z" fill="white"/>
<path d="M16.5 8H3.5C2.6719 8 2 7.3281 2 6.5C2 5.6719 2.6719 5 3.5 5H16.5C17.3281 5 18 5.6719 18 6.5C18 7.3281 17.3281 8 16.5 8Z" fill="white"/>
<path d="M16.5 14H3.5C2.6719 14 2 13.3281 2 12.5C2 11.6719 2.6719 11 3.5 11H16.5C17.3281 11 18 11.6719 18 12.5C18 13.3281 17.3281 14 16.5 14Z" fill="white"/>
<path d="M10.5 20H3.5C2.6719 20 2 19.3281 2 18.5C2 17.6719 2.6719 17 3.5 17H10.5C11.3281 17 12 17.6719 12 18.5C12 19.3281 11.3281 20 10.5 20Z" fill="white"/>
</svg>
