<svg width="24" height="24" viewBox="0 0 24 24" fill="none" xmlns="http://www.w3.org/2000/svg">
<path fill-rule="evenodd" clip-rule="evenodd" d="M12.023 0.999756C9.266 0.999756 7.0093 3.25646 7.0093 6.0135V10.012C7.0093 12.769 9.266 15.0257 12.023 15.0257C14.7801 15.0257 17.027 12.769 17.027 10.012V6.0135C17.027 3.25646 14.7801 0.999756 12.023 0.999756ZM12.023 3.00291C13.705 3.00291 15.0239 4.33153 15.0239 6.0135V10.012C15.0239 11.6939 13.705 13.0226 12.023 13.0226C10.3411 13.0226 9.01245 11.6939 9.01245 10.012V6.0135C9.01245 4.33153 10.3411 3.00291 12.023 3.00291ZM3.99284 8.99866C3.86115 8.99995 3.731 9.0272 3.60985 9.07884C3.4887 9.13049 3.37892 9.20552 3.2868 9.29964C3.19468 9.39376 3.12202 9.50512 3.07299 9.62735C3.02396 9.74958 2.99951 9.88028 3.00104 10.012C3.00104 14.9885 7.04652 19.032 12.023 19.032C16.9996 19.032 21.0353 14.9885 21.0353 10.012C21.0382 9.87857 21.0145 9.74593 20.9655 9.62182C20.9165 9.49772 20.8432 9.38465 20.7499 9.28926C20.6566 9.19387 20.5452 9.11808 20.4222 9.06634C20.2992 9.01459 20.1671 8.98794 20.0337 8.98794C19.9003 8.98794 19.7682 9.01459 19.6452 9.06634C19.5222 9.11808 19.4108 9.19387 19.3175 9.28926C19.2242 9.38465 19.1509 9.49772 19.1019 9.62182C19.0529 9.74593 19.0292 9.87857 19.0321 10.012C19.0321 13.9134 15.9245 17.0289 12.023 17.0289C8.12161 17.0289 5.00615 13.9134 5.00615 10.012C5.00771 9.87847 4.98257 9.746 4.9322 9.62236C4.88182 9.49871 4.80724 9.38638 4.71284 9.29198C4.61843 9.19757 4.5061 9.12299 4.38245 9.07262C4.25881 9.02224 4.12634 8.9971 3.99284 8.99866ZM9.91817 21.0352C9.91687 21.0358 9.91556 21.0365 9.91426 21.0371C9.65278 21.0565 9.40928 21.1775 9.23588 21.3741C9.06249 21.5708 8.97298 21.8275 8.98654 22.0894C9.00009 22.3512 9.11562 22.5974 9.30839 22.7751C9.50116 22.9528 9.75586 23.048 10.0179 23.0403H14.0262C14.1596 23.0433 14.2923 23.0196 14.4164 22.9706C14.5406 22.9216 14.6537 22.8483 14.7491 22.755C14.8445 22.6617 14.9203 22.5503 14.9721 22.4273C15.0238 22.3043 15.0505 22.1721 15.0505 22.0387C15.0505 21.9052 15.0238 21.7731 14.9721 21.6501C14.9203 21.5271 14.8445 21.4157 14.7491 21.3224C14.6537 21.2291 14.5406 21.1558 14.4164 21.1068C14.2923 21.0578 14.1596 21.0341 14.0262 21.0371H10.0179C9.98474 21.0348 9.95144 21.0342 9.91817 21.0352Z" fill="#3796A0"/>
</svg>
