<svg width="24" height="24" viewBox="0 0 24 24" fill="none" xmlns="http://www.w3.org/2000/svg">
<g clip-path="url(#clip0_134_231)">
<path d="M1.53226 3.12556L1.89479 2.84464V5.61406C1.89479 6.13081 2.31371 6.54973 2.83046 6.54973C3.34721 6.54973 3.76613 6.13081 3.76613 5.61406V0.935653C3.76613 0.578606 3.56288 0.25259 3.24231 0.0955123C2.92163 -0.0616596 2.53951 -0.0226127 2.25732 0.196106L0.385978 1.64637C-0.0224436 1.96292 -0.0969748 2.55068 0.219572 2.95915C0.536072 3.36753 1.12374 3.44211 1.53226 3.12556Z" fill="#0C6E7F"/>
<path d="M8.53797 4.21045H23.0409C23.5577 4.21045 23.9766 3.79153 23.9766 3.27478C23.9766 2.75803 23.5577 2.33911 23.0409 2.33911H8.53797C8.02122 2.33911 7.60229 2.75803 7.60229 3.27478C7.60229 3.79158 8.02122 4.21045 8.53797 4.21045Z" fill="#0C6E7F"/>
<path d="M2.39585 16.9357C2.39022 16.9357 2.38478 16.9364 2.37925 16.9365C2.37363 16.9364 2.36824 16.9357 2.36266 16.9357C1.53902 16.9357 0.767691 17.3571 0.349707 18.0355C0.0786285 18.4754 0.21555 19.0518 0.655472 19.3229C0.808519 19.4171 0.977972 19.4621 1.14546 19.4621C1.45943 19.4621 1.76618 19.3041 1.94294 19.0172C2.0216 18.8895 2.18636 18.807 2.36275 18.807C2.36838 18.807 2.37382 18.8063 2.37935 18.8062C2.38497 18.8063 2.39036 18.807 2.39594 18.807C2.64949 18.807 2.8638 19.0213 2.8638 19.2748C2.8638 19.3474 2.66163 19.5512 2.46269 19.6525L2.47113 19.6483L2.47141 19.6491C2.26333 19.7493 2.09139 19.9255 2.0028 20.1585C1.81905 20.6414 2.06158 21.1819 2.54453 21.3657C2.64311 21.4032 2.84205 21.5432 2.86375 21.6141C2.86375 21.8676 2.64949 22.0819 2.39589 22.0819C2.33547 22.0819 2.27655 22.0882 2.21932 22.0991C2.1108 22.0575 2.00641 21.975 1.94285 21.8717C1.67172 21.4318 1.09535 21.2949 0.655425 21.566C0.215457 21.8371 0.0785817 22.4135 0.34966 22.8534C0.785363 23.5607 1.55669 24 2.36261 24C2.48725 24 2.60589 23.9752 2.71464 23.931C3.85418 23.775 4.73505 22.7957 4.73505 21.6141C4.73505 21.1505 4.57019 20.7654 4.33703 20.4577C4.56302 20.1477 4.73505 19.7547 4.73505 19.2749C4.73505 17.985 3.68566 16.9357 2.39585 16.9357Z" fill="#0C6E7F"/>
<path d="M23.0409 11.0409H8.53797C8.02122 11.0409 7.60229 11.4598 7.60229 11.9766C7.60229 12.4933 8.02122 12.9122 8.53797 12.9122H23.0409C23.5577 12.9122 23.9766 12.4933 23.9766 11.9766C23.9766 11.4598 23.5577 11.0409 23.0409 11.0409Z" fill="#0C6E7F"/>
<path d="M23.0409 19.5088H8.53797C8.02122 19.5088 7.60229 19.9277 7.60229 20.4445C7.60229 20.9612 8.02122 21.3801 8.53797 21.3801H23.0409C23.5577 21.3801 23.9766 20.9612 23.9766 20.4445C23.9766 19.9277 23.5577 19.5088 23.0409 19.5088Z" fill="#0C6E7F"/>
<path d="M3.8597 13.4269H3.18953C4.55631 11.8775 4.73509 11.1138 4.73509 10.6198C4.73509 9.33003 3.68575 8.28064 2.39589 8.28064C2.39026 8.28064 2.38482 8.28139 2.37929 8.28148C2.37367 8.28139 2.36828 8.28064 2.3627 8.28064C1.07289 8.28064 0.0234962 9.32998 0.0234962 10.6198C0.0234962 11.1366 0.442418 11.5555 0.959168 11.5555C1.47592 11.5555 1.89484 11.1366 1.89484 10.6198C1.89484 10.3663 2.10911 10.152 2.3627 10.152C2.36832 10.152 2.37376 10.1513 2.37929 10.1512C2.38492 10.1513 2.39031 10.152 2.39589 10.152C2.64625 10.152 2.85817 10.3608 2.86365 10.61C2.85451 10.6582 2.73929 11.1402 1.63834 12.3542C0.986168 13.0735 0.337231 13.6634 0.330949 13.6691C0.0442618 13.9288 -0.0530507 14.3382 0.0861212 14.6992C0.225293 15.0601 0.572262 15.2982 0.959121 15.2982H3.8597C4.37645 15.2982 4.79537 14.8793 4.79537 14.3625C4.79537 13.8458 4.3765 13.4269 3.8597 13.4269Z" fill="#0C6E7F"/>
</g>
<defs>
<clipPath id="clip0_134_231">
<rect width="24" height="24" fill="white"/>
</clipPath>
</defs>
</svg>
