<svg width="20" height="21" viewBox="0 0 20 21" fill="none" xmlns="http://www.w3.org/2000/svg">
<path d="M15.0134 8.37327V6.01336C15.0134 3.25004 12.7668 1 10.0001 1C7.23676 1 4.98672 3.25004 4.98672 6.01336V8.37327C3.83004 8.46993 2.92004 9.4466 2.92004 10.6265V13.44C2.92004 17.0566 5.86001 20 9.47667 20H10.5233C14.14 20 17.08 17.0566 17.08 13.44V10.6265C17.08 9.44651 16.1701 8.46991 15.0134 8.37327ZM7.15676 6.01336C7.3126 2.24587 12.6877 2.24673 12.8434 6.01336V8.36345H7.15676L7.15676 6.01336ZM9.20678 14.4435C8.03677 13.6802 8.60761 11.8144 10.0001 11.8267C11.3926 11.8151 11.9643 13.6792 10.7935 14.4435C10.7035 14.5035 10.6468 14.6102 10.6468 14.7202V15.8902C10.6251 16.7418 9.37597 16.7435 9.35347 15.8902V14.7202C9.35347 14.6102 9.29678 14.5035 9.20678 14.4435Z" fill="#00393F"/>
</svg>
