<svg width="24" height="24" viewBox="0 0 24 24" fill="none" xmlns="http://www.w3.org/2000/svg">
<g clip-path="url(#clip0_134_240)">
<path d="M17.7029 23.0312C17.5139 23.0312 17.3209 23.0072 17.1297 22.9572L1.66538 18.816C0.472415 18.487 -0.238601 17.253 0.0734183 16.061L1.77341 9.54187C1.87742 9.14178 2.28649 8.89879 2.68841 9.00591C3.08851 9.10992 3.32948 9.5199 3.22456 9.92091L1.52438 16.4411C1.41946 16.843 1.65842 17.2579 2.05851 17.368L17.5139 21.5072C17.9109 21.6121 18.3209 21.3761 18.4249 20.9811L18.9528 18.851C19.0529 18.4491 19.4589 18.205 19.8608 18.3031C20.2629 18.4031 20.5079 18.8091 20.4089 19.211L19.879 21.3512C19.6118 22.3641 18.6999 23.0312 17.7029 23.0312Z" fill="#0C6E7F"/>
<path d="M21.75 17.0312H6.24957C5.00863 17.0312 3.99951 16.022 3.99951 14.7811V3.28069C3.99951 2.03976 5.00863 1.03064 6.24957 1.03064H21.75C22.9909 1.03064 24.0001 2.03976 24.0001 3.28069V14.7811C24.0001 16.022 22.9909 17.0312 21.75 17.0312ZM6.24957 2.53068C5.83556 2.53068 5.49955 2.86668 5.49955 3.28069V14.7811C5.49955 15.1951 5.83556 15.5311 6.24957 15.5311H21.75C22.164 15.5311 22.5 15.1951 22.5 14.7811V3.28069C22.5 2.86668 22.164 2.53068 21.75 2.53068H6.24957Z" fill="#0C6E7F"/>
<path d="M8.99962 8.03086C7.89657 8.03086 6.99951 7.1338 6.99951 6.03075C6.99951 4.9277 7.89657 4.03064 8.99962 4.03064C10.1027 4.03064 10.9995 4.9277 10.9995 6.03075C10.9995 7.1338 10.1027 8.03086 8.99962 8.03086ZM8.99962 5.53068C8.72349 5.53068 8.49955 5.7548 8.49955 6.03075C8.49955 6.3067 8.72349 6.53082 8.99962 6.53082C9.27557 6.53082 9.49951 6.3067 9.49951 6.03075C9.49951 5.7548 9.27557 5.53068 8.99962 5.53068Z" fill="#0C6E7F"/>
<path d="M4.76943 16.011C4.57753 16.011 4.38545 15.938 4.23951 15.7911C3.94653 15.4981 3.94653 15.023 4.23951 14.73L8.75958 10.2099C9.44368 9.52583 10.5566 9.52583 11.2396 10.2099L12.4487 11.419L16.1627 6.96082C16.4947 6.56274 16.9818 6.33275 17.4989 6.32982C18.0548 6.29888 18.5049 6.55175 18.8398 6.94489L23.818 12.753C24.0879 13.067 24.0509 13.5411 23.7369 13.811C23.4219 14.0811 22.9489 14.0441 22.6789 13.73L17.6988 7.91995C17.6327 7.84085 17.5518 7.84488 17.5067 7.83078C17.4639 7.83078 17.3808 7.84378 17.3148 7.92178L13.0747 13.0121C12.9396 13.1739 12.7428 13.2721 12.5327 13.281C12.3187 13.2929 12.1167 13.2109 11.9686 13.062L10.1787 11.272C10.0516 11.1449 9.94668 11.1449 9.8196 11.272L5.29953 15.7911C5.15341 15.938 4.96151 16.011 4.76943 16.011Z" fill="#0C6E7F"/>
</g>
<defs>
<clipPath id="clip0_134_240">
<rect width="24" height="24" fill="white"/>
</clipPath>
</defs>
</svg>
