<svg width="24" height="24" viewBox="0 0 24 24" fill="none" xmlns="http://www.w3.org/2000/svg">
<path d="M9 3H2.25C1.00927 3 0 4.00927 0 5.25V12C0 13.2407 1.00927 14.25 2.25 14.25H5.27746L4.13891 20.1068C4.09607 20.3269 4.15393 20.5543 4.29638 20.7272C4.43884 20.9 4.65088 21 4.875 21H7.30481C7.95704 21 8.53675 20.5734 8.73413 19.9556L10.9175 14.7766C10.9299 14.747 10.9405 14.7166 10.949 14.6858C11.1489 13.9673 11.25 13.2242 11.25 12.4775V5.25C11.25 4.00927 10.2407 3 9 3Z" fill="#0C6E7F"/>
<path d="M21.75 3H15C13.7593 3 12.75 4.00927 12.75 5.25V12C12.75 13.2407 13.7593 14.25 15 14.25H18.0278L16.8889 20.1068C16.8457 20.3269 16.9036 20.5543 17.0464 20.7272C17.1885 20.9 17.4009 21 17.625 21H20.0552C20.7078 21 21.2871 20.5734 21.4841 19.9552L23.6675 14.7766C23.6799 14.7469 23.6902 14.7165 23.699 14.6858C23.8989 13.9666 24 13.2235 24 12.4775V5.25C24 4.00927 22.9907 3 21.75 3Z" fill="#0C6E7F"/>
</svg>
