<svg width="24" height="24" viewBox="0 0 24 24" fill="none" xmlns="http://www.w3.org/2000/svg">
<path d="M15.9135 2C16.1034 1.98318 16.3045 2.0217 16.4955 2.13085L23.4953 6.13085C23.8202 6.31613 24.0146 6.66726 23.9991 7.04101C23.9845 7.38474 23.7941 7.6968 23.4953 7.86718L16.4955 11.8672C15.7305 12.305 14.8143 11.6108 15.0288 10.7559L15.3454 9.48516C15.3597 9.42757 15.3608 9.36747 15.3484 9.30942C15.3361 9.25137 15.3106 9.1969 15.2741 9.15013C15.2376 9.10337 15.1908 9.06555 15.1375 9.03953C15.0842 9.01352 15.0256 9 14.9662 9H8.4997C5.99081 9 3.99986 10.991 3.99986 13.5C3.99986 16.009 5.99081 18 8.4997 18H15.9994C17.104 18 17.9994 18.8954 17.9994 20C17.9994 21.1046 17.104 22 15.9994 22H8.4997C3.82913 22 0 18.1707 0 13.5C0 8.82926 3.82913 5 8.4997 5H14.9682C15.0275 5 15.0861 4.98647 15.1394 4.96046C15.1927 4.93444 15.2394 4.89662 15.276 4.84986C15.3125 4.80309 15.3379 4.74862 15.3502 4.69058C15.3625 4.63254 15.3614 4.57246 15.3471 4.51489L15.0288 3.24023C14.8697 2.59967 15.3438 2.05044 15.9135 2Z" fill="#0C6E7F"/>
</svg>
