<svg width="24" height="24" viewBox="0 0 24 24" fill="none" xmlns="http://www.w3.org/2000/svg">
<path fill-rule="evenodd" clip-rule="evenodd" d="M2.27995 1.43994H21.72C22.3164 1.43994 22.8 1.92347 22.8 2.51994C22.8 3.11641 22.3164 3.59994 21.72 3.59994H2.27995C1.68348 3.59994 1.19995 3.11641 1.19995 2.51994C1.19995 1.92347 1.68348 1.43994 2.27995 1.43994ZM13.08 6.23994H21.72C22.3164 6.23994 22.8 6.72347 22.8 7.31994C22.8 7.91641 22.3164 8.39994 21.72 8.39994H13.08C12.4835 8.39994 12 7.91641 12 7.31994C12 6.72347 12.4835 6.23994 13.08 6.23994ZM13.08 11.0399H21.72C22.3164 11.0399 22.8 11.5235 22.8 12.1199C22.8 12.7164 22.3164 13.1999 21.72 13.1999H13.08C12.4835 13.1999 12 12.7164 12 12.1199C12 11.5235 12.4835 11.0399 13.08 11.0399ZM13.08 15.8399H21.72C22.3164 15.8399 22.8 16.3235 22.8 16.9199C22.8 17.5164 22.3164 17.9999 21.72 17.9999H13.08C12.4835 17.9999 12 17.5164 12 16.9199C12 16.3235 12.4835 15.8399 13.08 15.8399ZM2.27995 20.6399H21.72C22.3164 20.6399 22.8 21.1235 22.8 21.7199C22.8 22.3164 22.3164 22.7999 21.72 22.7999H2.27995C1.68348 22.7999 1.19995 22.3164 1.19995 21.7199C1.19995 21.1235 1.68348 20.6399 2.27995 20.6399ZM4.8873 11.0706H8.27995C8.87642 11.0706 9.35995 11.5542 9.35995 12.1506C9.35995 12.7471 8.87642 13.2306 8.27995 13.2306H4.8873L6.09833 14.4417C6.52009 14.8634 6.52009 15.5473 6.09833 15.969C5.67656 16.3908 4.99274 16.3908 4.57098 15.969L1.51628 12.9143C1.30539 12.7034 1.19995 12.427 1.19995 12.1506C1.19995 11.8742 1.30539 11.5979 1.51628 11.387L4.57098 8.33227C4.99274 7.9105 5.67656 7.9105 6.09833 8.33227C6.52009 8.75403 6.52009 9.43785 6.09833 9.85962L4.8873 11.0706Z" fill="#0C6E7F"/>
</svg>
