<svg width="16" height="16" viewBox="0 0 16 16" fill="none" xmlns="http://www.w3.org/2000/svg">
<path d="M5.08047 4.13797C5.87402 3.50305 6.83744 3 7.9997 3C10.7611 3 12.9997 5.23857 12.9997 8C12.9997 10.7614 10.7611 13 7.9997 13C5.82976 13 3.981 11.6169 3.28994 9.68373C3.166 9.337 2.81635 9.10453 2.45616 9.18087L1.80398 9.31913C1.44378 9.39547 1.2106 9.7508 1.32106 10.1021C2.21388 12.9408 4.8653 15 7.9997 15C11.8656 15 14.9997 11.866 14.9997 8C14.9997 4.13401 11.8656 1 7.9997 1C6.14402 1 4.6986 1.84563 3.65888 2.71639L2.4711 1.52859C2.28043 1.33793 1.99368 1.28089 1.74457 1.38408C1.49545 1.48727 1.33302 1.73036 1.33302 2V5.66667C1.33302 6.03485 1.6315 6.33333 1.99969 6.33333H5.66636C5.936 6.33333 6.17909 6.17091 6.28228 5.92179C6.38546 5.67267 6.32843 5.38593 6.13776 5.19526L5.08047 4.13797Z" fill="#528C92"/>
</svg>
