<svg width="17" height="17" viewBox="0 0 17 17" fill="none" xmlns="http://www.w3.org/2000/svg">
<path d="M5.16675 1.83337C4.03341 1.83337 3.16675 2.76671 3.16675 3.90004V13.7667C3.16675 14.3 3.50008 14.8334 3.96675 15.0334C4.16675 15.1 4.30008 15.1667 4.50008 15.1667C4.83341 15.1667 5.10008 15.0334 5.36675 14.8334L8.43341 11.9667L11.5667 14.8334C11.9667 15.1667 12.5001 15.3 12.9667 15.1C13.4334 14.9 13.7667 14.3667 13.7667 13.8334V3.90004C13.8334 2.76671 12.9667 1.83337 11.8334 1.83337H5.16675ZM12.5001 3.90004V13.8334L9.36675 10.9667C9.10008 10.7667 8.76675 10.6334 8.50008 10.6334C8.16675 10.6334 7.90008 10.7667 7.63341 10.9667L4.50008 13.7667V3.90004C4.50008 3.50004 4.76675 3.16671 5.16675 3.16671H11.8334C12.2334 3.16671 12.5001 3.50004 12.5001 3.90004Z" fill="white"/>
</svg>
