<svg width="16" height="17" viewBox="0 0 16 17" fill="none" xmlns="http://www.w3.org/2000/svg">
<g clip-path="url(#clip0_120_956)">
<path d="M15.4888 15.0735L11.6808 11.1129C12.6599 9.94901 13.1964 8.48455 13.1964 6.95999C13.1964 3.39801 10.2983 0.5 6.73636 0.5C3.17438 0.5 0.276367 3.39801 0.276367 6.95999C0.276367 10.522 3.17438 13.42 6.73636 13.42C8.07358 13.42 9.34788 13.0167 10.4374 12.251L14.2743 16.2416C14.4347 16.4082 14.6504 16.5 14.8816 16.5C15.1004 16.5 15.3079 16.4166 15.4655 16.2649C15.8003 15.9428 15.811 15.4085 15.4888 15.0735ZM6.73636 2.18522C9.36923 2.18522 11.5111 4.32713 11.5111 6.95999C11.5111 9.59286 9.36923 11.7348 6.73636 11.7348C4.10349 11.7348 1.96158 9.59286 1.96158 6.95999C1.96158 4.32713 4.10349 2.18522 6.73636 2.18522Z" fill="#3796A0"/>
</g>
<defs>
<clipPath id="clip0_120_956">
<rect width="16" height="16" fill="white" transform="translate(0 0.5)"/>
</clipPath>
</defs>
</svg>
