<svg width="24" height="24" viewBox="0 0 24 24" fill="none" xmlns="http://www.w3.org/2000/svg">
<path fill-rule="evenodd" clip-rule="evenodd" d="M7.85048 4.31082L18.0915 8.91925C18.8251 9.24934 19.4377 9.525 19.8927 9.78109C20.3356 10.0303 20.8241 10.362 21.086 10.8917C21.4312 11.5901 21.4312 12.4094 21.086 13.1078C20.8241 13.6375 20.3356 13.9692 19.8927 14.2184C19.4377 14.4745 18.8251 14.7502 18.0915 15.0803L7.86801 19.6808C7.11559 20.0194 6.48899 20.3014 5.98576 20.4758C5.4984 20.6446 4.91575 20.794 4.33889 20.633C3.58148 20.4217 2.96767 19.8662 2.68187 19.1337C2.4642 18.5757 2.55481 17.9811 2.67426 17.4793C2.79759 16.9612 3.01573 16.3097 3.27766 15.5273L4.29796 12.4796C4.40426 12.162 4.41146 12.127 4.41484 12.1011C4.41809 12.0763 4.41946 12.0513 4.41896 12.0263C4.4186 12.0084 4.41729 11.9906 4.41501 11.9728C4.41169 11.9469 4.40458 11.9119 4.2991 11.5941L3.25754 8.45603C2.99844 7.67545 2.78259 7.02517 2.66092 6.50805C2.54301 6.0069 2.45428 5.41339 2.67259 4.85676C2.95937 4.12554 3.57313 3.57162 4.32982 3.36107C4.90585 3.20079 5.48719 3.34971 5.97366 3.51823C6.47564 3.69211 7.10046 3.9733 7.85048 4.31082ZM6.23299 12.9998H11.5002C12.0525 12.9998 12.5002 12.5521 12.5002 11.9998C12.5002 11.4475 12.0525 10.9998 11.5002 10.9998H6.20916C6.20519 10.9879 6.20123 10.976 6.19728 10.9641L5.17113 7.87245C4.89266 7.03345 4.70636 6.46907 4.60776 6.04999C4.5277 5.70971 4.539 5.58909 4.53978 5.57408C4.59736 5.43853 4.71183 5.33522 4.85256 5.2918C4.86757 5.29256 4.98871 5.29364 5.31903 5.40806C5.72583 5.54897 6.26822 5.79198 7.07436 6.15474L17.2262 10.7231C18.0159 11.0784 18.5449 11.3175 18.9118 11.524C19.2091 11.6913 19.2884 11.7792 19.2987 11.7899C19.3603 11.923 19.3603 12.0765 19.2988 12.2096C19.2884 12.2203 19.2091 12.3082 18.9118 12.4755C18.5449 12.682 18.0159 12.9211 17.2262 13.2764L7.09185 17.8369C6.28332 18.2008 5.73912 18.4446 5.33102 18.586C4.9996 18.7008 4.87805 18.7019 4.86299 18.7027C4.72222 18.6591 4.60781 18.5556 4.55041 18.4198C4.54968 18.4048 4.53866 18.2837 4.61989 17.9425C4.71991 17.5223 4.90829 16.9566 5.18975 16.1158L6.19451 13.1145C6.20044 13.0967 6.2064 13.079 6.21236 13.0613C6.21924 13.0408 6.22613 13.0203 6.23299 12.9998Z" fill="white"/>
</svg>
