<svg width="24" height="24" viewBox="0 0 24 24" fill="none" xmlns="http://www.w3.org/2000/svg">
<g clip-path="url(#clip0_134_237)">
<path d="M23.5823 11.767H17.6705C17.6705 11.767 17.6672 11.7651 17.6658 11.7642H7.72078C7.72078 11.7642 7.72453 11.766 7.72641 11.767H0.417656C0.226406 11.767 0.050625 11.9217 0.03375 12.1129C-0.01125 12.6313 -0.01125 13.1526 0.03375 13.6706C0.0501562 13.8623 0.226406 14.0165 0.417656 14.0165H13.4639C16.0336 15.0384 16.8497 15.9557 16.8497 17.4899C16.8497 19.1995 15.2714 20.2513 12.7397 20.2513C9.90938 20.2513 8.29453 19.2351 7.49672 16.859C7.16391 15.8685 6.14672 15.2803 5.12297 15.4884C3.89719 15.7373 3.17156 17.0085 3.57891 18.1907C4.88484 21.9838 7.98281 23.999 12.6745 23.999C17.6067 23.999 20.9606 21.336 20.9606 17.4567C20.9606 16.1254 20.6855 15.0013 20.0606 14.016H23.5828C23.7741 14.016 23.9498 13.8613 23.9667 13.6701C24.0117 13.1517 24.0117 12.6304 23.9667 12.1124C23.9498 11.9212 23.7741 11.7665 23.5828 11.7665L23.5823 11.767Z" fill="#0C6E7F"/>
<path d="M11.753 3.74813C13.643 3.74813 14.962 4.5225 15.7744 6.11953C16.2037 6.96328 17.1384 7.42078 18.0642 7.22391C19.4283 6.93328 20.1234 5.40609 19.4461 4.18734C18.9436 3.28359 18.263 2.49984 17.4084 1.84125C15.8634 0.624844 13.9561 0 11.753 0C7.28156 0 4.125 2.63016 4.125 6.345C4.125 8.04938 4.60969 9.34641 5.80687 10.4513H15.0389C14.3897 10.185 13.6795 9.92437 12.9037 9.66562C11.0953 9.07406 9.84562 8.54766 9.18797 8.08734C8.53031 7.59422 8.20172 7.03547 8.20172 6.345C8.20172 4.76672 9.61547 3.74766 11.753 3.74766V3.74813Z" fill="#0C6E7F"/>
</g>
<defs>
<clipPath id="clip0_134_237">
<rect width="24" height="24" fill="white"/>
</clipPath>
</defs>
</svg>
