<svg width="24" height="24" viewBox="0 0 24 24" fill="none" xmlns="http://www.w3.org/2000/svg">
<path fill-rule="evenodd" clip-rule="evenodd" d="M3 4.75C2.86193 4.75 2.75 4.86193 2.75 5V19C2.75 19.1381 2.86193 19.25 3 19.25H21C21.1381 19.25 21.25 19.1381 21.25 19V5C21.25 4.86193 21.1381 4.75 21 4.75H3ZM1.25 5C1.25 4.0335 2.0335 3.25 3 3.25H21C21.9665 3.25 22.75 4.0335 22.75 5V19C22.75 19.9665 21.9665 20.75 21 20.75H3C2.0335 20.75 1.25 19.9665 1.25 19V5Z" fill="#0C6E7F"/>
<path fill-rule="evenodd" clip-rule="evenodd" d="M1.25 14.5C1.25 14.0858 1.58579 13.75 2 13.75H22C22.4142 13.75 22.75 14.0858 22.75 14.5C22.75 14.9142 22.4142 15.25 22 15.25H2C1.58579 15.25 1.25 14.9142 1.25 14.5Z" fill="#0C6E7F"/>
<path fill-rule="evenodd" clip-rule="evenodd" d="M1.25 9.5C1.25 9.08579 1.58579 8.75 2 8.75H22C22.4142 8.75 22.75 9.08579 22.75 9.5C22.75 9.91421 22.4142 10.25 22 10.25H2C1.58579 10.25 1.25 9.91421 1.25 9.5Z" fill="#0C6E7F"/>
<path fill-rule="evenodd" clip-rule="evenodd" d="M8.5 8.75C8.91421 8.75 9.25 9.08579 9.25 9.5V20C9.25 20.4142 8.91421 20.75 8.5 20.75C8.08579 20.75 7.75 20.4142 7.75 20V9.5C7.75 9.08579 8.08579 8.75 8.5 8.75Z" fill="#0C6E7F"/>
<path fill-rule="evenodd" clip-rule="evenodd" d="M2 7.75C2.41421 7.75 2.75 8.08579 2.75 8.5V19C2.75 19.4142 2.41421 19.75 2 19.75C1.58579 19.75 1.25 19.4142 1.25 19V8.5C1.25 8.08579 1.58579 7.75 2 7.75Z" fill="#0C6E7F"/>
<path fill-rule="evenodd" clip-rule="evenodd" d="M22 7.75C22.4142 7.75 22.75 8.08579 22.75 8.5V19C22.75 19.4142 22.4142 19.75 22 19.75C21.5858 19.75 21.25 19.4142 21.25 19V8.5C21.25 8.08579 21.5858 7.75 22 7.75Z" fill="#0C6E7F"/>
<path fill-rule="evenodd" clip-rule="evenodd" d="M15.5 8.75C15.9142 8.75 16.25 9.08579 16.25 9.5V20C16.25 20.4142 15.9142 20.75 15.5 20.75C15.0858 20.75 14.75 20.4142 14.75 20V9.5C14.75 9.08579 15.0858 8.75 15.5 8.75Z" fill="#0C6E7F"/>
<path fill-rule="evenodd" clip-rule="evenodd" d="M3.75 20C3.75 19.5858 4.08579 19.25 4.5 19.25H19.5C19.9142 19.25 20.25 19.5858 20.25 20C20.25 20.4142 19.9142 20.75 19.5 20.75H4.5C4.08579 20.75 3.75 20.4142 3.75 20Z" fill="#0C6E7F"/>
</svg>
