<svg width="20" height="21" viewBox="0 0 20 21" fill="none" xmlns="http://www.w3.org/2000/svg">
<path d="M10.8376 15.9771C10.8376 14.738 11.32 13.5728 12.1963 12.6965C13.0727 11.8202 14.2375 11.3378 15.4769 11.3378C16.4943 11.3378 17.4617 11.6634 18.2605 12.2648C18.3048 11.6177 18.3323 10.8939 18.3333 10.0837C18.3312 8.04575 18.1601 6.55346 17.9777 5.45684C17.6584 3.64995 16.0172 2.00876 14.2103 1.68952C13.1137 1.50669 11.6214 1.33564 9.58315 1.3335C7.54523 1.33564 6.05258 1.50669 4.95595 1.68916C3.14943 2.0084 1.50823 3.64959 1.18899 5.45648C1.00652 6.55311 0.835828 8.04539 0.833328 10.0833C0.835828 12.1212 1.00652 13.6139 1.18899 14.7105C1.50823 16.5174 3.14943 18.1586 4.95631 18.4778C6.05294 18.6603 7.54523 18.831 9.58351 18.8335C10.3937 18.8324 11.1176 18.8049 11.7646 18.7606C11.1633 17.9618 10.8376 16.9948 10.8376 15.9771ZM5.25984 5.56218H13.9068C14.466 5.56218 14.9195 6.01568 14.9195 6.57489C14.9195 7.1341 14.466 7.5876 13.9068 7.5876H5.25984C4.70063 7.5876 4.24713 7.1341 4.24713 6.57489C4.24713 6.01568 4.70063 5.56218 5.25984 5.56218ZM5.25984 11.8166C4.70063 11.8166 4.24713 11.3631 4.24713 10.8039C4.24713 10.2447 4.70063 9.79122 5.25984 9.79122H10.3359C10.8951 9.79122 11.3486 10.2447 11.3486 10.8039C11.3486 11.3631 10.8951 11.8166 10.3359 11.8166H5.25984Z" fill="#00393F"/>
<path d="M15.4167 12.167C13.3455 12.167 11.6667 13.8459 11.6667 15.917C11.6667 17.9881 13.3455 19.667 15.4167 19.667C17.4878 19.667 19.1667 17.9881 19.1667 15.917C19.1667 13.8459 17.4878 12.167 15.4167 12.167ZM16.1157 17.7776C16.1157 18.1636 15.8026 18.4767 15.4167 18.4767C15.0307 18.4767 14.7176 18.1636 14.7176 17.7776V15.9332C14.7176 15.5472 15.0307 15.2341 15.4167 15.2341C15.8026 15.2341 16.1157 15.5472 16.1157 15.9332V17.7776ZM16.087 14.4368C16.0613 14.5825 15.9288 14.7149 15.7831 14.7407C15.6948 14.7554 15.5741 14.769 15.4097 14.7694C15.2452 14.7694 15.1249 14.7554 15.0362 14.7407C14.8905 14.7149 14.7581 14.5825 14.7323 14.4368C14.7176 14.3485 14.704 14.2278 14.7036 14.0633C14.7036 13.8989 14.7176 13.7785 14.7323 13.6899C14.7581 13.5442 14.8905 13.4117 15.0362 13.386C15.1245 13.3712 15.2452 13.3576 15.4097 13.3573C15.5741 13.3573 15.6944 13.3712 15.7831 13.386C15.9288 13.4117 16.0613 13.5442 16.087 13.6899C16.1018 13.7782 16.1154 13.8989 16.1157 14.0633C16.1157 14.2278 16.1018 14.3481 16.087 14.4368Z" fill="#00393F"/>
</svg>
