<svg width="24" height="24" viewBox="0 0 24 24" fill="none" xmlns="http://www.w3.org/2000/svg">
<g clip-path="url(#clip0_134_220)">
<path d="M11.8012 17.304C14.1377 17.3013 16.3778 16.3719 18.03 14.7197C19.6822 13.0675 20.6116 10.8274 20.6143 8.49086V2.06571C20.6143 1.51785 20.3967 0.99243 20.0093 0.605034C19.6219 0.217637 19.0965 0 18.5486 0C18.0008 0 17.4753 0.217637 17.0879 0.605034C16.7005 0.99243 16.4829 1.51785 16.4829 2.06571V8.49086C16.4829 9.73252 15.9896 10.9233 15.1117 11.8013C14.2337 12.6793 13.0429 13.1726 11.8012 13.1726C10.5595 13.1726 9.3687 12.6793 8.49071 11.8013C7.61272 10.9233 7.11947 9.73252 7.11947 8.49086V2.06571C7.10398 1.52793 6.87946 1.01736 6.49359 0.642452C6.10773 0.267539 5.59091 0.0578124 5.0529 0.0578124C4.51489 0.0578124 3.99807 0.267539 3.61221 0.642452C3.22634 1.01736 3.00182 1.52793 2.98633 2.06571V8.49086C2.98905 10.8277 3.91869 13.068 5.57125 14.7203C7.22382 16.3725 9.46433 17.3017 11.8012 17.304Z" fill="#0C6E7F"/>
<path d="M22.2669 19.8531H1.73314C1.27728 19.8549 0.840301 20.0355 0.516194 20.3561C0.192086 20.6766 0.00673451 21.1116 8.47894e-07 21.5674V22.2651C-0.000224418 22.4929 0.0444384 22.7184 0.131436 22.9289C0.218434 23.1394 0.346061 23.3307 0.50702 23.4918C0.66798 23.6529 0.859116 23.7807 1.0695 23.8679C1.27989 23.9551 1.5054 24 1.73314 24H22.2669C22.7259 24 23.1662 23.8179 23.4912 23.4936C23.8161 23.1693 23.9991 22.7294 24 22.2703V21.5709C23.9942 21.1144 23.8092 20.6786 23.485 20.3573C23.1608 20.036 22.7233 19.8549 22.2669 19.8531Z" fill="#0C6E7F"/>
</g>
<defs>
<clipPath id="clip0_134_220">
<rect width="24" height="24" fill="white"/>
</clipPath>
</defs>
</svg>
