<svg width="24" height="24" viewBox="0 0 24 24" fill="none" xmlns="http://www.w3.org/2000/svg">
<path d="M8.08651 2C7.89662 1.98318 7.69551 2.0217 7.5045 2.13085L0.504747 6.13085C0.179794 6.31613 -0.014604 6.66726 0.000858454 7.04101C0.0155386 7.38474 0.205864 7.6968 0.504747 7.86718L7.5045 11.8672C8.2695 12.305 9.18569 11.6108 8.97124 10.7559L8.65464 9.48516C8.64029 9.42757 8.63925 9.36747 8.6516 9.30942C8.66394 9.25137 8.68935 9.1969 8.72589 9.15013C8.76244 9.10337 8.80915 9.06555 8.8625 9.03953C8.91584 9.01352 8.97441 9 9.03376 9H15.5003C18.0092 9 20.0001 10.991 20.0001 13.5C20.0001 16.009 18.0092 18 15.5003 18H8.00057C6.89604 18 6.00064 18.8954 6.00064 20C6.00064 21.1046 6.89604 22 8.00057 22H15.5003C20.1709 22 24 18.1707 24 13.5C24 8.82926 20.1709 5 15.5003 5H9.0318C8.97247 5 8.91392 4.98647 8.86059 4.96046C8.80726 4.93444 8.76056 4.89662 8.72404 4.84986C8.68752 4.80309 8.66214 4.74862 8.64982 4.69058C8.6375 4.63254 8.63857 4.57246 8.65294 4.51489L8.97124 3.24023C9.13031 2.59967 8.65618 2.05044 8.08651 2Z" fill="#0C6E7F"/>
</svg>
