<svg width="16" height="16" viewBox="0 0 16 16" fill="none" xmlns="http://www.w3.org/2000/svg">
<path d="M12.486 6.144C12.304 3.8285 10.3615 2 8 2C5.98 2 4.246 3.312 3.6865 5.2255C2.0905 5.7795 1 7.2915 1 9C1 11.2055 2.7945 13 5 13H11.5C13.43 13 15 11.43 15 9.5C15 7.9255 13.965 6.574 12.486 6.144ZM10.462 7.6915C10.3845 7.878 10.202 8 10 8H9V10C9 10.552 8.552 11 8 11C7.448 11 7 10.552 7 10V8H6C5.798 8 5.6155 7.878 5.538 7.6915C5.4605 7.5045 5.5035 7.2895 5.6465 7.1465L7.6465 5.1465C7.744 5.049 7.872 5 8 5C8.128 5 8.256 5.049 8.3535 5.1465L10.3535 7.1465C10.4965 7.2895 10.5395 7.5045 10.462 7.6915Z" fill="white"/>
</svg>
