<svg width="20" height="21" viewBox="0 0 20 21" fill="none" xmlns="http://www.w3.org/2000/svg">
<path d="M14.2634 4.76331C14.6701 4.35661 15.3293 4.35682 15.7361 4.76331C16.1429 5.1701 16.1429 5.82917 15.7361 6.23596L11.4724 10.4996L15.7361 14.7633C16.1429 15.1701 16.1429 15.8292 15.7361 16.236C15.3293 16.6428 14.6702 16.6428 14.2634 16.236L9.99976 11.9723L5.73608 16.236C5.32929 16.6428 4.67022 16.6428 4.26343 16.236C3.85694 15.8291 3.85674 15.17 4.26343 14.7633L8.5271 10.4996L4.26343 6.23596C3.85694 5.82914 3.85674 5.17 4.26343 4.76331C4.67012 4.35661 5.32926 4.35682 5.73608 4.76331L9.99976 9.02698L14.2634 4.76331Z" fill="#2B8B9B"/>
</svg>
